<?xml version="1.0" standalone="no"?>
<!DOCTYPE svg PUBLIC "-//W3C//DTD SVG 20010904//EN"
 "http://www.w3.org/TR/2001/REC-SVG-20010904/DTD/svg10.dtd">
<svg version="1.0" xmlns="http://www.w3.org/2000/svg"
 width="700.000000pt" height="700.000000pt" viewBox="0 0 700.000000 700.000000"
 preserveAspectRatio="xMidYMid meet">
<metadata>
Created by potrace 1.14, written by Peter Selinger 2001-2017
</metadata>
<g transform="translate(0.000000,700.000000) scale(0.100000,-0.100000)"
fill="#000000" stroke="none">
<path d="M387 6760 c-125 -40 -219 -131 -260 -253 -25 -73 -18 -187 16 -260
67 -147 187 -223 366 -232 102 -5 143 -20 193 -70 106 -107 72 -284 -67 -346
-30 -13 -74 -19 -180 -22 -164 -5 -225 -23 -308 -91 -102 -83 -147 -179 -143
-307 4 -129 76 -249 188 -313 59 -34 97 -45 177 -53 75 -7 122 -31 150 -77 66
-106 -2 -238 -128 -251 -279 -27 -447 -256 -372 -503 40 -133 178 -244 319
-258 112 -11 147 -28 186 -89 25 -38 26 -120 2 -161 -30 -50 -77 -75 -158 -85
-91 -10 -124 -20 -182 -54 -121 -71 -195 -216 -182 -358 11 -128 92 -245 211
-305 69 -34 116 -44 235 -47 119 -3 167 -31 194 -110 18 -51 12 -100 -17 -144
-36 -54 -80 -71 -195 -76 -118 -5 -141 -9 -208 -41 -79 -37 -148 -105 -186
-181 -81 -166 -21 -377 137 -478 74 -48 151 -65 291 -65 104 0 125 -3 169 -24
104 -48 151 -147 120 -253 -31 -103 -101 -152 -227 -159 -141 -8 -223 -41
-306 -122 -203 -200 -113 -544 166 -628 40 -13 484 -15 3103 -15 l3057 0 63
21 c161 53 265 180 276 335 13 180 -100 341 -277 394 -19 6 -77 13 -128 15
-77 4 -101 9 -137 30 -153 90 -142 314 19 387 32 15 66 19 156 19 129 0 206
16 282 57 64 35 133 110 166 181 23 48 27 71 27 147 0 80 -4 97 -31 155 -63
134 -170 208 -324 225 -71 8 -89 13 -123 37 -54 38 -78 123 -52 185 29 69 67
97 150 107 81 11 126 26 191 62 190 105 249 344 131 530 -62 100 -180 167
-302 173 -131 6 -210 109 -170 222 26 72 76 101 198 113 82 8 173 54 231 116
200 214 97 552 -191 629 -23 6 -86 13 -141 15 -107 4 -146 17 -181 62 -45 57
-47 132 -6 195 33 51 75 68 181 70 146 4 235 36 321 113 101 91 143 233 108
367 -26 104 -84 180 -177 234 -70 39 -129 51 -262 53 -140 1 -199 18 -250 71
-95 99 -73 261 45 333 37 23 60 29 129 33 141 9 225 42 302 117 47 47 57 61
89 128 25 52 35 178 18 232 -37 118 -114 208 -217 256 l-57 27 -3080 2 c-2980
2 -3082 1 -3138 -17z"/>
</g>
</svg>
